<?xml version="1.0" encoding="UTF-8" standalone="no"?>
<!DOCTYPE svg PUBLIC "-//W3C//DTD SVG 1.1//EN" "http://www.w3.org/Graphics/SVG/1.1/DTD/svg11.dtd">
<svg width="100%" height="100%" viewBox="0 0 231 89" version="1.1" xmlns="http://www.w3.org/2000/svg" xmlns:xlink="http://www.w3.org/1999/xlink" xml:space="preserve" xmlns:serif="http://www.serif.com/" style="fill-rule:evenodd;clip-rule:evenodd;stroke-linejoin:round;stroke-miterlimit:2;">
    <g transform="matrix(1,0,0,1,-70,-70)">
        <g transform="matrix(1,0,0,1,70,70)">
            <rect id="Layer_1-2" x="42.273" y="69.02" width="19.1" height="19.1" style="fill:rgb(0,255,230);"/>
            <rect id="Layer_1-21" serif:id="Layer_1-2" x="61.372" y="49.91" width="19.1" height="19.1" style="fill:white;"/>
            <rect id="Layer_1-22" serif:id="Layer_1-2" x="80.542" y="38.399" width="11.452" height="11.452" style="fill:rgb(68,160,255);"/>
            <rect id="Layer_1-23" serif:id="Layer_1-2" x="11.452" y="0" width="11.452" height="11.452" style="fill:rgb(0,255,230);"/>
            <rect id="Layer_1-24" serif:id="Layer_1-2" x="0" y="50.22" width="22.913" height="22.913" style="fill:rgb(0,255,230);"/>
            <rect id="Layer_1-25" serif:id="Layer_1-2" x="22.913" y="11.452" width="38.459" height="38.459" style="fill:rgb(68,160,255);"/>
        </g>
        <g transform="matrix(1,0,0,1,178,91.695)">
            <g>
                <path d="M18.14,15L8,15L8,37.62C8,40.14 8.46,41.87 9.38,42.81C10.307,43.757 11.947,44.23 14.3,44.23L18.14,44.23L18.14,46.75L13.86,46.75C10.873,46.75 8.677,46.047 7.27,44.64C5.863,43.233 5.16,40.893 5.16,37.62L5.16,15L0,15L0,12.54L5.16,12.54L5.16,3.85L8,3.85L8,12.54L18.14,12.54L18.14,15ZM26.09,4.92C25.417,4.92 24.847,4.7 24.38,4.26C23.92,3.82 23.69,3.22 23.69,2.46C23.69,1.747 23.92,1.16 24.38,0.7C24.847,0.233 25.417,0 26.09,0C26.757,0 27.323,0.233 27.79,0.7C28.25,1.16 28.48,1.747 28.48,2.46C28.48,3.22 28.25,3.82 27.79,4.26C27.323,4.7 26.757,4.92 26.09,4.92ZM24.64,12.54L27.47,12.54L27.47,46.75L24.64,46.75L24.64,12.54ZM35.1,29.61C35.1,26.083 35.803,22.997 37.21,20.35C38.617,17.703 40.57,15.667 43.07,14.24C45.57,12.813 48.417,12.1 51.61,12.1C55.097,12.1 58.12,12.97 60.68,14.71C63.24,16.457 65.047,18.717 66.1,21.49L66.1,0.13L68.93,0.13L68.93,46.75L66.1,46.75L66.1,37.68C65.093,40.493 63.33,42.793 60.81,44.58C58.29,46.36 55.223,47.25 51.61,47.25C48.417,47.25 45.57,46.527 43.07,45.08C40.57,43.633 38.617,41.577 37.21,38.91C35.803,36.243 35.1,33.143 35.1,29.61ZM66.1,29.61C66.1,26.63 65.48,23.997 64.24,21.71C63,19.417 61.31,17.653 59.17,16.42C57.03,15.18 54.637,14.56 51.99,14.56C49.217,14.56 46.78,15.157 44.68,16.35C42.58,17.55 40.943,19.283 39.77,21.55C38.59,23.817 38,26.503 38,29.61C38,32.723 38.59,35.413 39.77,37.68C40.943,39.947 42.59,41.69 44.71,42.91C46.83,44.123 49.257,44.73 51.99,44.73C54.637,44.73 57.04,44.113 59.2,42.88C61.367,41.64 63.057,39.873 64.27,37.58C65.49,35.293 66.1,32.637 66.1,29.61ZM76.5,29.61C76.5,26.083 77.203,22.997 78.61,20.35C80.017,17.703 81.97,15.667 84.47,14.24C86.97,12.813 89.817,12.1 93.01,12.1C96.623,12.1 99.69,12.983 102.21,14.75C104.73,16.51 106.493,18.757 107.5,21.49L107.5,12.54L110.33,12.54L110.33,46.75L107.5,46.75L107.5,37.74C106.493,40.513 104.717,42.793 102.17,44.58C99.63,46.36 96.577,47.25 93.01,47.25C89.817,47.25 86.97,46.527 84.47,45.08C81.97,43.633 80.017,41.577 78.61,38.91C77.203,36.243 76.5,33.143 76.5,29.61ZM107.5,29.61C107.5,26.63 106.88,23.997 105.64,21.71C104.4,19.417 102.71,17.653 100.57,16.42C98.43,15.18 96.037,14.56 93.39,14.56C90.617,14.56 88.18,15.157 86.08,16.35C83.98,17.55 82.34,19.283 81.16,21.55C79.987,23.817 79.4,26.503 79.4,29.61C79.4,32.723 79.987,35.413 81.16,37.68C82.34,39.947 83.99,41.69 86.11,42.91C88.23,44.123 90.657,44.73 93.39,44.73C96.037,44.73 98.44,44.113 100.6,42.88C102.76,41.64 104.45,39.873 105.67,37.58C106.89,35.293 107.5,32.637 107.5,29.61ZM119.67,0.13L122.5,0.13L122.5,46.75L119.67,46.75L119.67,0.13Z" style="fill:white;fill-rule:nonzero;"/>
            </g>
        </g>
    </g>
</svg>
